<svg width="17" height="21" viewBox="0 0 17 21" fill="none" xmlns="http://www.w3.org/2000/svg">
<path d="M16.4569 14.3629C15.173 13.2775 14.4367 11.6911 14.4367 10.0105V7.64295C14.4367 4.65462 12.2169 2.18083 9.34143 1.76644V0.849164C9.34143 0.379566 8.96093 0 8.49211 0C8.02344 0 7.64295 0.379566 7.64295 0.849164V1.76644C4.76658 2.18083 2.54765 4.65462 2.54765 7.64295V10.0105C2.54765 11.6911 1.81137 13.2775 0.519668 14.3696C0.189394 14.6524 0 15.0634 0 15.4981C0 16.3178 0.666612 16.9844 1.48608 16.9844H15.4981C16.3178 16.9844 16.9844 16.3178 16.9844 15.4981C16.9844 15.0634 16.795 14.6524 16.4569 14.3629Z" fill="#212529"/>
<path d="M8.4921 20.3811C10.0301 20.3811 11.3167 19.2847 11.6121 17.8335H5.37207C5.66767 19.2847 6.95424 20.3811 8.4921 20.3811Z" fill="#212529"/>
</svg>
